<?xml version="1.0" encoding="UTF-8"?>
<svg xmlns="http://www.w3.org/2000/svg" version="1.1" viewBox="0 0 160 160">
  <!-- Generator: Adobe Illustrator 30.2.1, SVG Export Plug-In . SVG Version: 2.1.1 Build 1)  -->
  <defs>
    <style>
      .st0 {
        fill: #385337;
      }

      .st1 {
        fill: none;
        stroke: #131a14;
        stroke-miterlimit: 10;
        stroke-width: 8px;
      }
    </style>
  </defs>
  <g id="Layer_3">
    <g>
      <polygon class="st0" points="27.63 47 43.07 23.43 55.53 18.54 80.5 5.23 104.78 17.99 117.75 22.93 133.26 46.32 133.26 59.31 135.99 67.24 135.99 92.12 131.75 100.33 130.93 113.86 116.71 134.78 103.72 140.94 80.5 154.2 57.37 141.48 44.11 135.06 30.03 113.86 29.48 101.01 24.01 91.71 24.01 67.38 27.7 59.45 27.63 47"/>
      <polygon class="st0" points="64.47 36.21 95.34 36.21 108.02 57.27 96.05 78.19 64.47 78.19 52.26 57.2 64.47 36.21"/>
      <polyline class="st0" points="64.47 78.19 52.26 99.15 64.47 121.65 95.82 121.65 108.02 99.92 96.05 78.19"/>
      <line class="st0" x1="108.02" y1="100.9" x2="131.25" y2="100.9"/>
      <line class="st0" x1="108.02" y1="57.27" x2="132.76" y2="59.88"/>
      <line class="st0" x1="95.34" y1="36.21" x2="104.28" y2="18.55"/>
      <line class="st0" x1="64.47" y1="36.21" x2="55.03" y2="19.1"/>
      <line class="st0" x1="52.26" y1="57.2" x2="27.2" y2="60.01"/>
      <line class="st0" x1="52.26" y1="99.15" x2="29.48" y2="101.01"/>
      <line class="st0" x1="64.47" y1="121.65" x2="56.75" y2="141.18"/>
      <line class="st0" x1="80.14" y1="121.65" x2="80.14" y2="154.77"/>
      <line class="st0" x1="95.82" y1="121.65" x2="103.22" y2="141.5"/>
    </g>
  </g>
  <g id="Layer_2">
    <g>
      <polygon class="st1" points="27.63 47 43.07 23.43 55.53 18.54 80.5 5.23 104.78 17.99 117.75 22.93 133.26 46.32 133.26 59.31 135.99 67.24 135.99 92.12 131.75 100.33 130.93 113.86 116.71 134.78 103.72 140.94 80.5 154.2 57.37 141.48 44.11 135.06 30.03 113.86 29.48 101.01 24.01 91.71 24.01 67.38 27.7 59.45 27.63 47"/>
      <polygon class="st1" points="64.47 36.21 95.34 36.21 108.02 57.27 96.05 78.19 64.47 78.19 52.26 57.2 64.47 36.21"/>
      <polyline class="st1" points="64.47 78.19 52.26 99.15 64.47 121.65 95.82 121.65 108.02 99.92 96.05 78.19"/>
      <line class="st1" x1="108.02" y1="100.9" x2="131.25" y2="100.9"/>
      <line class="st1" x1="108.02" y1="57.27" x2="132.76" y2="59.88"/>
      <line class="st1" x1="95.34" y1="36.21" x2="104.28" y2="18.55"/>
      <line class="st1" x1="64.47" y1="36.21" x2="55.03" y2="19.1"/>
      <line class="st1" x1="52.26" y1="57.2" x2="27.2" y2="60.01"/>
      <line class="st1" x1="52.26" y1="99.15" x2="29.48" y2="101.01"/>
      <line class="st1" x1="64.47" y1="121.65" x2="56.75" y2="141.18"/>
      <line class="st1" x1="80.14" y1="121.65" x2="80.14" y2="154.77"/>
      <line class="st1" x1="95.82" y1="121.65" x2="103.22" y2="141.5"/>
    </g>
  </g>
</svg>